HIERARCHY
ROOT Hips
{
	OFFSET 0.00000 0.00000 0.00000
	CHANNELS 6 Xposition Yposition Zposition Zrotation Yrotation Xrotation 
	JOINT LHipJoint
	{
		OFFSET 0 0 0
		CHANNELS 3 Zrotation Yrotation Xrotation
		JOINT LeftUpLeg
		{
			OFFSET 1.80322 -1.53100 0.99595
			CHANNELS 3 Zrotation Yrotation Xrotation
			JOINT LeftLeg
			{
				OFFSET 2.25177 -6.18669 0.00000
				CHANNELS 3 Zrotation Yrotation Xrotation
				JOINT LeftFoot
				{
					OFFSET 2.26601 -6.22582 0.00000
					CHANNELS 3 Zrotation Yrotation Xrotation
					JOINT LeftToeBase
					{
						OFFSET 0.23701 -0.65119 2.15848
						CHANNELS 3 Zrotation Yrotation Xrotation
						End Site
						{
							OFFSET 0.00000 -0.00000 1.12949
						}
					}
				}
			}
		}
	}
	JOINT RHipJoint
	{
		OFFSET 0 0 0
		CHANNELS 3 Zrotation Yrotation Xrotation
		JOINT RightUpLeg
		{
			OFFSET -1.93977 -1.53100 0.99595
			CHANNELS 3 Zrotation Yrotation Xrotation
			JOINT RightLeg
			{
				OFFSET -2.28036 -6.26523 0.00000
				CHANNELS 3 Zrotation Yrotation Xrotation
				JOINT RightFoot
				{
					OFFSET -2.25490 -6.19528 0.00000
					CHANNELS 3 Zrotation Yrotation Xrotation
					JOINT RightToeBase
					{
						OFFSET -0.28375 -0.77960 2.23137
						CHANNELS 3 Zrotation Yrotation Xrotation
						End Site
						{
							OFFSET -0.00000 -0.00000 1.17899
						}
					}
				}
			}
		}
	}
	JOINT LowerBack
	{
		OFFSET 0 0 0
		CHANNELS 3 Zrotation Yrotation Xrotation
		JOINT Spine
		{
			OFFSET -0.00088 2.12090 -0.02806
			CHANNELS 3 Zrotation Yrotation Xrotation
			JOINT Spine1
			{
				OFFSET -0.00286 2.09666 0.12974
				CHANNELS 3 Zrotation Yrotation Xrotation
				JOINT Neck
				{
					OFFSET 0 0 0
					CHANNELS 3 Zrotation Yrotation Xrotation
					JOINT Neck1
					{
						OFFSET 0.07328 1.83526 0.07290
						CHANNELS 3 Zrotation Yrotation Xrotation
						JOINT Head
						{
							OFFSET -0.06683 1.74974 -0.49542
							CHANNELS 3 Zrotation Yrotation Xrotation
							End Site
							{
								OFFSET -0.03398 1.85163 -0.17573
							}
						}
					}
				}
				JOINT LeftShoulder
				{
					OFFSET 0 0 0
					CHANNELS 3 Zrotation Yrotation Xrotation
					JOINT LeftArm
					{
						OFFSET 3.02113 1.18018 0.40602
						CHANNELS 3 Zrotation Yrotation Xrotation
						JOINT LeftForeArm
						{
							OFFSET 4.58538 -0.00000 -0.00000
							CHANNELS 3 Zrotation Yrotation Xrotation
							JOINT LeftHand
							{
								OFFSET 2.68935 -0.00000 -0.00000
								CHANNELS 3 Zrotation Yrotation Xrotation
								JOINT LeftFingerBase
								{
									OFFSET 0 0 0
									CHANNELS 3 Zrotation Yrotation Xrotation
									JOINT LeftHandIndex1
									{
										OFFSET 0.58506 -0.00000 -0.00000
										CHANNELS 3 Zrotation Yrotation Xrotation
										End Site
										{
											OFFSET 0.47169 -0.00000 -0.00000
										}
									}
								}
								JOINT LThumb
								{
									OFFSET 0 0 0
									CHANNELS 3 Zrotation Yrotation Xrotation
									End Site
									{
										OFFSET 0.47889 -0.00000 0.47889
									}
								}
							}
						}
					}
				}
				JOINT RightShoulder
				{
					OFFSET 0 0 0
					CHANNELS 3 Zrotation Yrotation Xrotation
					JOINT RightArm
					{
						OFFSET -2.95074 1.18843 0.31430
						CHANNELS 3 Zrotation Yrotation Xrotation
						JOINT RightForeArm
						{
							OFFSET -4.47450 -0.00000 -0.00000
							CHANNELS 3 Zrotation Yrotation Xrotation
							JOINT RightHand
							{
								OFFSET -2.93896 -0.00000 -0.00000
								CHANNELS 3 Zrotation Yrotation Xrotation
								JOINT RightFingerBase
								{
									OFFSET 0 0 0
									CHANNELS 3 Zrotation Yrotation Xrotation
									JOINT RightHandIndex1
									{
										OFFSET -0.40509 -0.00000 -0.00000
										CHANNELS 3 Zrotation Yrotation Xrotation
										End Site
										{
											OFFSET -0.32660 -0.00000 -0.00000
										}
									}
								}
								JOINT RThumb
								{
									OFFSET 0 0 0
									CHANNELS 3 Zrotation Yrotation Xrotation
									End Site
									{
										OFFSET -0.33158 -0.00000 0.33158
									}
								}
							}
						}
					}
				}
			}
		}
	}
}
MOTION
Frames: 8
Frame Time: 0.0425532
0.00 0.00 0.00 0 0 0 0 0 0 -21 0 0 0 0 0 0 0 0 0 0 0 0 0 0 21 0 0 0 0 0 0 0 0 0 0 0 0 0 0 0 0 0 0 0 0 0 0 -16 0 0 21 0 0 11 0 0 0 -8 0 0 0 0 0 0 0 0 0 0 0 0 0 0 0 0 0 0 0 0 8 0 0 0 0 0 0 0 0 0 0 0 0 0 0 0 0 0
0.00 0.00 0.00 -3.6854 -2.7562 11.4880 0.0000 0.0000 0.0000 -11.0336 -17.6659 -12.1739 2.0264 8.9209 25.5481 0.6460 12.3115 -24.1920 0.0000 0.0059 0.0163 0.0000 0.0000 0.0000 19.3068 15.9898 -8.0554 -1.2093 -6.9764 19.6456 0.9667 -22.7479 -24.5968 -0.0006 -0.1603 0.4403 3.9547 -0.5654 -4.2357 0.4971 -0.7728 -7.4913 -1.6888 -0.5907 -5.4548 11.0352 4.2383 -9.1775 -6.3068 5.6441 30.0409 -3.5428 3.0433 11.8424 -0.0000 -0.0000 0.0000 -87.9656 13.9911 16.6566 30.7518 -41.5291 -11.9049 -0.0000 -0.0000 2.6108 16.0247 25.2749 6.9912 -7.1250 0.0000 -0.0000 -14.6662 55.5368 -3.8529 -0.0000 -0.0000 0.0000 84.3325 -10.2362 27.2770 -22.0864 33.0745 -6.6329 0.0000 -0.0000 -31.5413 -13.3339 -19.3935 4.5000 7.1250 -0.0000 -0.0000 14.6766 -49.2977 -1.5862
0.00 0.00 0.00 -3.8259 -0.4674 11.8074 0.0000 0.0000 0.0000 -11.7624 -17.0561 -15.1148 2.5889 9.9979 28.9698 1.3038 7.5975 -25.5357 0.0150 -0.7901 -2.1714 0.0000 0.0000 0.0000 17.6928 7.6956 -12.1253 -1.5609 -7.8845 22.3637 -0.4456 -15.6582 -26.1888 -0.1846 2.7674 -7.6318 4.6036 0.3576 -2.5807 0.4342 0.5468 -7.0809 -2.1361 0.0320 -5.8808 9.7358 2.7017 -9.4944 -6.2744 3.4274 23.3093 -3.4389 1.8147 9.1391 -0.0000 -0.0000 0.0000 -86.1745 11.2456 40.8627 75.4992 -59.1904 -47.4761 -0.0000 0.0000 -1.5442 21.5860 22.7359 8.6938 -7.1250 0.0000 -0.0000 -7.8391 54.0686 -1.7556 -0.0000 -0.0000 0.0000 80.8452 -9.6419 57.1640 -41.7482 49.0722 -19.7501 0.0000 -0.0000 -62.8522 -10.5784 -25.7512 4.6387 7.1250 -0.0000 -0.0000 20.3947 -54.9329 -5.1335
0.00 0.00 0.00 -2.3862 -0.6399 11.1698 0.0000 0.0000 0.0000 -14.1495 -15.6200 -14.2192 2.5301 9.8925 28.6294 1.4028 5.2807 -24.8312 0.0435 -1.3457 -3.7004 0.0000 0.0000 0.0000 14.9185 4.1422 -19.8568 -3.6706 -11.7086 34.7088 -0.6374 -11.6804 -23.4832 -0.2520 3.2297 -8.9189 2.3739 0.8498 -1.9137 0.3650 1.1996 -6.9175 -0.9882 0.4779 -6.0632 9.1619 1.9038 -9.2196 -5.9695 2.3421 22.3660 -3.3346 1.2804 8.6514 0.0000 0.0000 0.0000 -84.8885 8.0815 52.1939 97.4683 -59.7882 -66.4632 -0.0000 0.0000 -0.6713 25.1386 18.8329 8.6137 -7.1250 0.0000 -0.0000 -3.0749 50.5988 -0.4246 0.0000 0.0000 0.0000 79.7092 -6.6547 67.2363 -54.3953 54.6214 -29.7224 0.0000 -0.0000 -68.6273 -10.2602 -24.5797 4.3059 7.1250 -0.0000 -0.0000 20.0335 -53.7746 -4.4606
0.00 0.00 0.00 -0.0276 -1.0759 8.8623 0.0000 0.0000 0.0000 -17.9776 -13.7248 -10.1637 2.2110 9.2924 26.7144 1.2958 4.7924 -23.7139 0.0528 -1.4830 -4.0790 0.0000 0.0000 0.0000 10.1550 3.6258 -29.0609 -8.2745 -16.3175 53.5456 -0.2653 -8.6240 -16.4073 -0.0871 1.9040 -5.2403 -0.3887 1.3976 -0.2884 -0.2863 1.8490 -6.0220 -0.1727 0.9314 -6.0796 8.6917 1.1797 -8.8309 -5.7347 1.3804 21.6362 -3.2562 0.8071 8.2443 -0.0000 -0.0000 0.0000 -82.4633 1.8617 63.5207 117.0359 -57.0494 -83.1818 -0.0000 -0.0000 1.6724 27.2988 13.3805 6.8110 -7.1250 0.0000 -0.0000 -0.0638 44.9657 0.0001 -0.0000 -0.0000 0.0000 80.4186 0.7601 77.4118 -69.7822 58.3977 -42.5851 0.0000 -0.0000 -69.7083 -9.1629 -21.9087 3.4442 7.1250 -0.0000 -0.0000 19.7010 -51.0716 -3.0477
0.00 0.00 0.00 -0.0105 -0.2100 7.6245 0.0000 0.0000 0.0000 -18.2280 -12.9848 -6.0282 2.0545 8.9787 25.7288 1.4227 4.7605 -24.6902 0.1033 -2.0728 -5.7070 0.0000 0.0000 0.0000 6.2679 6.2383 -35.9441 -7.6485 -15.8545 51.2864 -0.2943 -5.7835 -13.9961 -0.1798 2.7312 -7.5312 0.0332 2.0486 -0.7093 -0.8154 2.7114 -5.6449 -0.9705 1.3280 -5.3954 8.3791 0.1074 -8.3308 -4.6680 -0.2340 22.1819 -3.0006 0.1353 8.2159 -0.0000 0.0000 0.0000 -79.6656 -6.8912 75.0375 135.0062 -50.7655 -97.7660 -0.0000 -0.0000 0.6850 27.0324 7.9019 4.0125 -7.1250 0.0000 -0.0000 0.1668 38.8362 -0.0253 -0.0000 0.0000 0.0000 80.2310 18.1436 85.1644 -91.2573 59.9940 -61.0888 0.0000 -0.0000 -66.0594 -10.8228 -20.7415 3.8733 7.1250 -0.0000 -0.0000 17.5960 -50.2237 -2.3287
0.00 0.00 0.00 0.1866 1.9177 7.3570 0.0000 0.0000 0.0000 -17.4385 -12.6251 -2.1924 1.5294 7.8081 22.1326 1.3777 4.4216 -24.1563 0.2025 -2.8974 -7.9934 0.0000 0.0000 0.0000 1.9552 11.4797 -33.5384 -3.4380 -11.3724 33.5464 0.3162 -10.2432 -6.5351 -0.2851 3.4338 -9.4889 -0.3378 2.0888 -0.5770 -0.9862 2.7506 -5.5686 -0.9456 1.3614 -5.3993 7.6607 -0.6530 -8.6760 -3.5622 -1.4368 22.7884 -2.6308 -0.3734 8.4190 -0.0000 0.0000 0.0000 -78.1288 -9.8464 77.6064 141.2931 -47.2849 -102.5169 -0.0000 0.0000 -0.9883 24.2233 6.7864 3.0433 -7.1250 0.0000 -0.0000 -2.1684 37.4066 0.4055 -0.0000 0.0000 0.0000 72.0880 34.1665 80.8752 -103.2343 59.3277 -71.4354 0.0000 -0.0000 -57.3026 -12.6682 -18.4636 4.0719 7.1250 -0.0000 -0.0000 14.9523 -48.2889 -1.2389
0.00 0.00 0.00 0.0765 5.9506 7.6334 0.0000 0.0000 0.0000 -14.9227 -12.7009 2.5376 0.7866 5.6620 15.8069 1.2000 3.5100 -22.2291 0.4054 -4.0877 -11.3236 0.0000 0.0000 0.0000 -1.0356 14.7162 -31.8717 -2.0141 -8.8954 25.4686 0.5086 -14.2337 2.0101 -0.4761 4.4250 -12.2755 -0.6456 1.7297 -0.7311 -1.0266 2.2655 -5.6694 -0.7933 1.1354 -5.4338 6.5960 -1.4247 -9.1540 -2.6612 -2.5610 23.8597 -2.2792 -0.8766 8.8345 -0.0000 -0.0000 0.0000 -75.8149 -10.0491 76.5414 143.4574 -45.8828 -104.0892 -0.0000 0.0000 -4.5960 21.3413 7.6533 2.9787 -7.1250 0.0000 -0.0000 -4.7079 38.1503 0.7962 -0.0000 -0.0000 0.0000 50.1485 49.3552 62.2982 -109.9451 58.4422 -77.1826 0.0000 -0.0000 -49.6494 -12.1703 -16.1094 3.4245 7.1250 -0.0000 -0.0000 14.5996 -45.9132 -0.3362
